<svg width="106" height="80" viewBox="0 0 106 80" fill="none" xmlns="http://www.w3.org/2000/svg">
<path fill-rule="evenodd" clip-rule="evenodd" d="M43.5 24.5V79.5H44V79.5256H77.2666V69.2487H72.3337C69.6845 66.1885 64.3862 59.3556 64.3862 56.5054C64.3862 52.9428 73.2928 50.7504 81.3773 49.1061C89.4617 47.4618 102.342 42.2549 105.083 33.7593H73.704V31.4299H52.9921V24.5H64.5047C64.8168 24.5 65.111 24.3543 65.3002 24.106L72.5383 14.606C72.811 14.248 72.811 13.752 72.5383 13.394L65.3002 3.89396C65.111 3.64571 64.8168 3.5 64.5047 3.5H52.9921V1L52 0H45L44 1V3.5L34 3.57143V2.5H28L26 4.5V22.5L28 25.5L34 25.523V24.5345L43.5 24.5ZM0.862305 31.4299H41V79.5256H10.454V69.2487C15.4326 68.3809 25.3897 63.9322 25.3897 53.0798C25.3897 42.2275 9.03811 39.0576 0.862305 38.8293V31.4299Z" fill="#ffffff"/>
</svg>
