<svg width="105" height="82" viewBox="0 0 105 82" fill="none" xmlns="http://www.w3.org/2000/svg">
<path fill-rule="evenodd" clip-rule="evenodd" d="M45.5 26.5V33.5V81.5H55H76.5V71.2487H71.3337C68.6845 68.1885 63.3862 61.3556 63.3862 58.5054C63.3862 54.9428 72.2928 52.7504 80.3773 51.1061C88.4617 49.4618 101.342 44.4955 104.083 36H72.704V33.5H55V26.5H65V27.5H71L73 24.5V6.5L71 4.5H65V5.5H54.9921V3.53466C54.9921 3.2006 54.8253 2.88859 54.5474 2.70306L50.5 0L46.4453 2.70313C46.1671 2.8886 46 3.20083 46 3.53518V5.5L36 5.57143V4.5H30L28 6.5V24.5L30 27.5L36 27.523V26.5345L45.5 26.5ZM0 33.5H43.5V81.5H9.5V71.5C14.4786 70.6322 24.3897 65.9322 24.3897 55.0798C24.3897 44.2275 8.1758 41.2284 0 41V33.5Z" fill="#FFFFFF"/>
</svg>
